<?xml version="1.0" encoding="iso-8859-1"?>
<!-- Generator: Adobe Illustrator 16.0.0, SVG Export Plug-In . SVG Version: 6.00 Build 0)  -->
<!DOCTYPE svg PUBLIC "-//W3C//DTD SVG 1.1//EN" "http://www.w3.org/Graphics/SVG/1.1/DTD/svg11.dtd">
<svg version="1.1" id="Capa_1" xmlns="http://www.w3.org/2000/svg" xmlns:xlink="http://www.w3.org/1999/xlink" x="0px" y="0px"
	 width="600.207px" height="600.207px" viewBox="0 0 600.207 600.207" style="enable-background:new 0 0 600.207 600.207;"
	 xml:space="preserve">
<g>
	<g>
		<path d="M575.63,74.893c-3.354-26.271-24.041-46.96-50.312-50.312L340.285,0.968c-2.43-0.31-4.908-0.468-7.359-0.468h-0.002l0,0
			c-7.648,0.001-15.111,1.48-22.184,4.4c-7.113,2.937-13.481,7.186-18.925,12.629L17.533,291.811
			C6.551,302.792,0.503,317.392,0.503,332.922s6.048,30.13,17.03,41.111l208.644,208.645c10.981,10.981,25.582,17.029,41.111,17.029
			c15.53,0,30.13-6.048,41.111-17.029l274.281-274.28c6.242-6.242,11.053-13.959,13.906-22.314
			c2.854-8.354,3.771-17.399,2.654-26.157L575.63,74.893z M552.388,278.104L278.107,552.386c-2.987,2.987-6.903,4.481-10.819,4.481
			s-7.831-1.494-10.819-4.481L47.825,343.74c-5.975-5.975-5.975-15.662,0-21.637L322.107,47.822
			c2.887-2.887,6.787-4.481,10.818-4.481c0.643,0,1.289,0.041,1.938,0.123l185.033,23.612c6.914,0.882,12.357,6.326,13.24,13.24
			l23.611,185.033C557.347,270.046,555.738,274.756,552.388,278.104z"/>
		<path d="M267.289,600.207c-15.663,0-30.389-6.1-41.465-17.176L17.18,374.387C6.104,363.311,0.003,348.585,0.003,332.922
			s6.1-30.389,17.176-41.464L291.461,17.176c5.489-5.489,11.911-9.775,19.088-12.738C317.68,1.494,325.208,0.001,332.923,0
			c2.471,0,4.969,0.159,7.425,0.472l185.033,23.612c26.495,3.381,47.362,24.248,50.745,50.745l23.611,185.033
			c1.127,8.833,0.201,17.956-2.678,26.382c-2.877,8.425-7.727,16.208-14.025,22.506l-274.281,274.28
			C297.678,594.107,282.952,600.207,267.289,600.207z M332.925,1c-7.585,0.001-14.985,1.469-21.995,4.362
			c-7.054,2.913-13.366,7.125-18.762,12.521L17.886,292.165C6.999,303.051,1.003,317.525,1.003,332.922S7,362.793,17.887,373.68
			l208.644,208.645c10.887,10.887,25.362,16.883,40.758,16.883c15.396,0,29.871-5.996,40.758-16.883l274.281-274.28
			c6.191-6.191,10.958-13.841,13.786-22.123c2.83-8.283,3.739-17.25,2.632-25.932L575.134,74.957
			c-3.324-26.046-23.836-46.557-49.88-49.88L340.221,1.464C337.807,1.156,335.353,1,332.925,1z M267.289,557.367
			c-4.22,0-8.188-1.644-11.172-4.628L47.472,344.094c-2.984-2.984-4.627-6.951-4.627-11.172s1.644-8.188,4.627-11.172
			L321.753,47.468c3.411-3.411,8.361-5.11,13.173-4.5L519.959,66.58c7.139,0.911,12.761,6.533,13.673,13.672l23.611,185.033
			c0.614,4.816-1.068,9.74-4.502,13.172L278.461,552.739C275.477,555.724,271.509,557.367,267.289,557.367z M332.925,43.841
			c-3.896,0-7.71,1.58-10.465,4.334L48.179,322.457c-2.795,2.795-4.334,6.512-4.334,10.465s1.54,7.67,4.334,10.465l208.645,208.646
			c2.796,2.796,6.513,4.335,10.465,4.335c3.953,0,7.67-1.539,10.465-4.335l274.281-274.281c3.217-3.215,4.793-7.828,4.217-12.338
			L532.64,80.379c-0.854-6.688-6.12-11.955-12.808-12.807L334.799,43.96C334.179,43.881,333.548,43.841,332.925,43.841z"/>
	</g>
	<g>
		<path d="M425.609,107.846c-17.83,0-34.594,6.944-47.203,19.551c-12.609,12.61-19.551,29.373-19.551,47.204
			s6.943,34.595,19.551,47.203c12.609,12.608,29.373,19.552,47.203,19.552s34.596-6.944,47.203-19.552
			c12.609-12.608,19.553-29.373,19.553-47.203s-6.943-34.594-19.553-47.202C460.205,114.79,443.439,107.846,425.609,107.846z
			 M442.521,191.512c-4.67,4.669-10.791,7.004-16.912,7.004s-12.24-2.335-16.91-7.004c-9.34-9.339-9.34-24.481,0-33.821
			c4.67-4.669,10.789-7.004,16.91-7.004s12.24,2.335,16.912,7.004C451.859,167.03,451.859,182.173,442.521,191.512z"/>
		<path d="M425.609,241.856c-17.964,0-34.853-6.996-47.557-19.699c-12.702-12.703-19.697-29.592-19.697-47.557
			c0-17.965,6.995-34.854,19.697-47.557c12.704-12.702,29.594-19.698,47.557-19.698c17.966,0,34.854,6.996,47.557,19.699
			c12.703,12.702,19.699,29.591,19.699,47.556c0,17.965-6.996,34.854-19.699,47.557
			C460.463,234.861,443.575,241.856,425.609,241.856z M425.609,108.346c-17.696,0-34.334,6.892-46.85,19.405
			c-12.513,12.514-19.404,29.152-19.404,46.85c0,17.697,6.892,34.335,19.404,46.85c12.515,12.514,29.153,19.406,46.85,19.406
			c17.698,0,34.337-6.892,46.85-19.406c12.515-12.513,19.406-29.151,19.406-46.85c0-17.697-6.892-34.335-19.406-46.849
			C459.946,115.238,443.307,108.346,425.609,108.346z M425.609,199.017c-6.521,0-12.652-2.54-17.264-7.151
			s-7.151-10.743-7.151-17.264s2.54-12.652,7.151-17.264c4.611-4.611,10.743-7.151,17.264-7.151s12.652,2.54,17.266,7.151
			c9.518,9.52,9.518,25.009,0,34.528C438.263,196.477,432.131,199.017,425.609,199.017z M425.609,151.187
			c-6.254,0-12.134,2.436-16.557,6.858c-4.423,4.423-6.858,10.303-6.858,16.557s2.436,12.135,6.858,16.557
			s10.303,6.858,16.557,6.858c6.255,0,12.136-2.436,16.559-6.858c9.128-9.129,9.128-23.985,0-33.114
			C437.743,153.622,431.862,151.187,425.609,151.187z"/>
	</g>
</g>
<g>
</g>
<g>
</g>
<g>
</g>
<g>
</g>
<g>
</g>
<g>
</g>
<g>
</g>
<g>
</g>
<g>
</g>
<g>
</g>
<g>
</g>
<g>
</g>
<g>
</g>
<g>
</g>
<g>
</g>
</svg>
