<svg id="svg" version="1.1" xmlns="http://www.w3.org/2000/svg" xmlns:xlink="http://www.w3.org/1999/xlink" width="400" height="400" viewBox="0, 0, 400,400"><g id="svgg"><path id="path0" d="M67.688 25.431 C 30.826 38.634,30.394 89.549,67.035 102.334 L 71.681 103.955 71.681 200.000 L 71.681 296.045 67.035 297.666 C 25.668 312.101,33.875 374.045,77.407 375.948 C 124.219 377.996,137.425 312.261,93.114 297.767 L 88.496 296.256 88.496 200.000 L 88.496 103.744 93.114 102.233 C 126.936 91.170,129.692 43.193,97.398 27.660 C 89.026 23.633,75.532 22.621,67.688 25.431 M161.066 43.896 C 140.461 60.394,136.296 64.094,137.290 65.018 C 137.953 65.634,149.296 74.752,162.497 85.281 L 186.498 104.425 193.249 104.425 L 200.000 104.425 200.000 88.447 L 200.000 72.469 233.407 72.764 C 265.042 73.043,267.119 73.162,272.566 75.001 C 289.527 80.730,303.262 94.457,309.094 111.504 L 311.062 117.257 311.307 206.835 L 311.553 296.414 309.095 297.007 C 289.040 301.844,275.574 325.240,280.897 345.996 C 288.590 375.991,326.637 386.384,348.546 364.475 C 369.534 343.488,361.140 307.497,332.965 297.666 L 328.319 296.045 328.319 208.162 C 328.319 111.490,328.428 113.656,322.863 100.248 C 314.411 79.884,297.555 64.796,275.955 58.259 C 269.828 56.405,267.548 56.278,234.735 55.969 L 200.000 55.641 200.000 39.767 L 200.000 23.894 193.024 23.894 L 186.047 23.894 161.066 43.896 M90.090 42.998 C 102.468 49.167,106.919 63.462,100.206 75.489 C 88.123 97.138,54.628 86.698,56.870 61.982 C 58.350 45.659,75.622 35.789,90.090 42.998 M182.998 71.554 L 182.743 79.481 173.894 72.414 C 169.027 68.527,164.708 65.022,164.298 64.626 C 163.887 64.230,167.869 60.430,173.147 56.182 L 182.743 48.459 182.998 56.043 C 183.139 60.214,183.139 67.194,182.998 71.554 M91.194 315.596 C 104.233 322.693,107.403 339.854,97.756 351.125 C 84.329 366.811,58.737 358.607,56.870 338.018 C 55.179 319.376,74.704 306.621,91.194 315.596 M330.718 315.357 C 339.222 319.667,344.003 328.395,343.130 338.018 C 341.263 358.607,315.671 366.811,302.244 351.125 C 285.742 331.846,308.024 303.857,330.718 315.357 " stroke="none" fill="#000000" fill-rule="evenodd"></path></g></svg>